Coordinates
version=1
nRows=26
nColumns=22
inDegrees=yes

Units are S.I. units (second, meters, Newtons, ...)
If the header above contains a line with 'inDegrees', this indicates whether rotational values are in degrees (yes) or radians (no).

endheader
time	pelvis_tilt	pelvis_list	pelvis_rotation	pelvis_tx	pelvis_ty	pelvis_tz	hip_flexion_r	hip_adduction_r	hip_rotation_r	knee_angle_r	ankle_angle_r	subtalar_angle_r	hip_flexion_l	hip_adduction_l	hip_rotation_l	knee_angle_l	ankle_angle_l	subtalar_angle_l	lumbar_extension	lumbar_bending	lumbar_rotation
      1.70000000	     -4.19894816	      5.38776122	    132.69036375	     -0.71379487	      0.90286406	      0.70867862	    -22.84084318	     11.59642182	     10.97384516	    -17.62317130	     14.24649626	     -5.49131163	     24.50467869	     -3.17710577	      0.51694201	    -21.38476146	      9.31258944	     -0.85508886	    -12.71738800	      3.54873651	     -2.76854375
      1.71000000	     -4.31501151	      5.03294680	    131.99973403	     -0.72244611	      0.90248899	      0.69856836	    -22.73612911	     11.02726077	     11.02210668	    -19.00590510	     12.93678377	     -4.23577193	     24.55937657	     -2.57369760	      1.68009320	    -22.77662998	      8.55018890	     -2.02506766	    -12.28372286	      3.08484111	     -2.75521124
      1.72000000	     -4.45483038	      4.69866150	    131.30329352	     -0.73101216	      0.90239081	      0.68825325	    -22.53724674	     10.45707824	     11.02056107	    -20.54210086	     11.30083611	     -2.81770592	     24.59538139	     -2.02303290	      2.61995331	    -24.25085948	      7.90652451	     -3.11587357	    -11.87243856	      2.61211464	     -2.82076943
      1.73000000	     -4.61207464	      4.40206540	    130.60836985	     -0.73944426	      0.90257088	      0.67772967	    -22.25777690	      9.90349560	     10.96138909	    -22.19995107	      9.29850633	     -1.27078210	     24.60253404	     -1.55588597	      3.29068186	    -25.78673282	      7.49792523	     -4.09970000	    -11.49684592	      2.14059344	     -2.95331411
      1.74000000	     -4.80074850	      4.16349936	    129.89131703	     -0.74766436	      0.90305863	      0.66699779	    -21.90919064	      9.36085879	     10.87807138	    -23.99147592	      6.92656127	      0.38661966	     24.52472796	     -1.19731190	      3.63161213	    -27.32562415	      7.42040109	     -4.95920551	    -11.19281184	      1.66765713	     -3.13954519
      1.75000000	     -5.02498473	      3.98359774	    129.14930339	     -0.75564080	      0.90383707	      0.65612156	    -21.47263033	      8.81795602	     10.74900257	    -25.93656186	      4.22969234	      2.07291246	     24.32634256	     -0.93887717	      3.67085454	    -28.80093985	      7.69417049	     -5.68458374	    -10.97317002	      1.19242496	     -3.37471902
      1.76000000	     -5.27373957	      3.86163310	    128.38859900	     -0.76334944	      0.90486255	      0.64521031	    -20.91441121	      8.27618167	     10.54746875	    -28.05897707	      1.28042505	      3.65652487	     23.99478220	     -0.76991032	      3.46731470	    -30.16095301	      8.27903855	     -6.28712547	    -10.84220430	      0.73198202	     -3.66774637
      1.77000000	     -5.54021808	      3.78023781	    127.60019827	     -0.77075369	      0.90608273	      0.63436051	    -20.18330327	      7.71830440	     10.25973293	    -30.39745446	     -1.79024694	      5.02371270	     23.52225758	     -0.66831063	      3.06761078	    -31.34360472	      9.10270674	     -6.78965097	    -10.79114045	      0.28382199	     -4.01183372
      1.78000000	     -5.80408383	      3.72940188	    126.78236439	     -0.77784332	      0.90742638	      0.62369361	    -19.23162733	      7.14653459	      9.88666919	    -32.98267515	     -4.83112202	      6.10973528	     22.93182091	     -0.62146076	      2.52180095	    -32.33340969	     10.07493538	     -7.23616489	    -10.81373711	     -0.12934983	     -4.38696374
      1.79000000	     -6.04442703	      3.69526018	    125.93007116	     -0.78457221	      0.90882754	      0.61328231	    -18.01543749	      6.56848916	      9.44409248	    -35.82533136	     -7.67625207	      6.84544645	     22.24682561	     -0.62652699	      1.85587554	    -33.11196457	     11.12501106	     -7.63727208	    -10.89115694	     -0.49761374	     -4.79420944
      1.80000000	     -6.24594650	      3.66080038	    125.03555065	     -0.79092425	      0.91021509	      0.60317928	    -16.51069065	      5.98867763	      8.97200360	    -38.90826903	    -10.17000393	      7.31422485	     21.50203168	     -0.67520424	      1.08930812	    -33.68930116	     12.19596756	     -8.02635152	    -11.00488468	     -0.81446179	     -5.23343795
      1.81000000	     -6.40322438	      3.61479247	    124.08773909	     -0.79687408	      0.91155162	      0.59340158	    -14.71984491	      5.41660111	      8.52629348	    -42.18233277	    -12.16792637	      7.62235213	     20.71947306	     -0.75856499	      0.23636778	    -34.07833061	     13.23140166	     -8.40922682	    -11.14288639	     -1.08410255	     -5.69039787
      1.82000000	     -6.50251522	      3.55292056	    123.08739602	     -0.80244174	      0.91280885	      0.58396757	    -12.65784138	      4.87700545	      8.13844679	    -45.57418140	    -13.52491602	      7.88312338	     19.91686373	     -0.86035454	     -0.61782244	    -34.29062316	     14.28415944	     -8.87811527	    -11.29016284	     -1.29462990	     -6.11612490
      1.83000000	     -6.56805777	      3.48546446	    122.02646557	     -0.80761555	      0.91404284	      0.57478086	    -10.40446464	      4.38506715	      7.86834750	    -48.96363553	    -14.20906154	      8.06364240	     19.08428059	     -0.98633325	     -1.54848962	    -34.36159047	     15.23447298	     -9.31975250	    -11.45815753	     -1.47107361	     -6.55111890
      1.84000000	     -6.57014482	      3.41754174	    120.94253728	     -0.81250310	      0.91524247	      0.56587191	     -7.98464798	      3.98381191	      7.66406050	    -52.25886647	    -14.20580580	      8.15097106	     18.25119003	     -1.12311690	     -2.40597532	    -34.32104406	     16.20242917	     -9.90181172	    -11.62514143	     -1.57064387	     -6.95446179
      1.85000000	     -6.54996908	      3.36731538	    119.82692997	     -0.81709764	      0.91651705	      0.55709966	     -5.49865786	      3.66886526	      7.55098649	    -55.34811249	    -13.58405153	      8.04453088	     17.37015690	     -1.27208500	     -3.28543497	    -34.17345137	     17.06829729	    -10.46179786	    -11.81241846	     -1.63461523	     -7.36857252
      1.86000000	     -6.50123401	      3.35217416	    118.71822552	     -0.82148374	      0.91790585	      0.54845064	     -3.00204530	      3.45192265	      7.45134358	    -58.14837618	    -12.47565749	      7.70367219	     16.43862720	     -1.42928996	     -4.11965258	    -33.93814232	     17.86837399	    -11.03979894	    -12.02328001	     -1.64368502	     -7.77507826
      1.87000000	     -6.42443443	      3.38221436	    117.64004766	     -0.82572034	      0.91945994	      0.53986387	     -0.55598373	      3.33641917	      7.33126059	    -60.57923312	    -11.02820740	      7.12164119	     15.44269823	     -1.59839911	     -4.90464422	    -33.61373793	     18.59891872	    -11.62196708	    -12.25224014	     -1.59030314	     -8.21532145
      1.88000000	     -6.31617130	      3.46928785	    116.62325758	     -0.82985472	      0.92119982	      0.53132361	      1.79398254	      3.31222400	      7.12244630	    -62.59174729	     -9.38837867	      6.34087112	     14.37968520	     -1.78687840	     -5.62622044	    -33.21470531	     19.25662289	    -12.17721039	    -12.50417841	     -1.46663493	     -8.68395441
      1.89000000	     -6.17610780	      3.60970501	    115.68570930	     -0.83389286	      0.92310845	      0.52282594	      4.02612912	      3.36555639	      6.79285181	    -64.16709070	     -7.68075531	      5.44823222	     13.26170543	     -2.00068210	     -6.29764118	    -32.75618612	     19.82010144	    -12.66899380	    -12.77512800	     -1.27958049	     -9.19093360
      1.90000000	     -5.98253882	      3.80562864	    114.85639377	     -0.83793011	      0.92521066	      0.51429300	      6.09944865	      3.49048701	      6.28053498	    -65.25487964	     -5.99553328	      4.40772763	     12.06300540	     -2.25410066	     -6.88521090	    -32.18219496	     20.36402720	    -13.11222992	    -13.03566786	     -1.00000596	     -9.74526982
      1.91000000	     -5.76009183	      4.03194140	    114.12244572	     -0.84189895	      0.92740994	      0.50576321	      8.03377771	      3.64434888	      5.59310556	    -65.90460200	     -4.38817458	      3.43543966	     10.82730682	     -2.53773674	     -7.46882453	    -31.54960862	     20.78432820	    -13.44154902	    -13.28769565	     -0.68157901	    -10.32157120
      1.92000000	     -5.49882736	      4.30006694	    113.49792471	     -0.84588756	      0.92970755	      0.49721738	      9.79398917	      3.81853706	      4.70035831	    -66.10458852	     -2.91482090	      2.46437042	      9.53013214	     -2.85399743	     -7.99105105	    -30.82918728	     21.19730656	    -13.66821966	    -13.53370052	     -0.29349122	    -10.93549769
      1.93000000	     -5.21819142	      4.58001576	    112.96490754	     -0.84987300	      0.93200973	      0.48862995	     11.39987706	      3.97606175	      3.62092850	    -65.89510192	     -1.59818793	      1.66056657	      8.19678129	     -3.18578179	     -8.51062470	    -30.03387502	     21.56210401	    -13.75238249	    -13.75161411	      0.11827554	    -11.56058609
      1.94000000	     -4.93128993	      4.85348579	    112.49826703	     -0.85386717	      0.93424239	      0.47998868	     12.86557355	      4.08693022	      2.37820364	    -65.31214401	     -0.44098434	      1.06278674	      6.84039410	     -3.51804767	     -9.05672461	    -29.17316431	     21.87967150	    -13.69703722	    -13.93092792	      0.53357213	    -12.17806865
      1.95000000	     -4.65290350	      5.11258278	    112.07771329	     -0.85786564	      0.93634047	      0.47129408	     14.19499280	      4.13694144	      1.00658306	    -64.38930093	      0.58066347	      0.64209224	      5.46646615	     -3.83471613	     -9.65002565	    -28.25790230	     22.15643967	    -13.50798787	    -14.07578332	      0.93444831	    -12.78156575
